<?xml version="1.0" standalone="no"?>
<!DOCTYPE svg PUBLIC "-//W3C//DTD SVG 20010904//EN"
 "http://www.w3.org/TR/2001/REC-SVG-20010904/DTD/svg10.dtd">
<svg version="1.0" xmlns="http://www.w3.org/2000/svg"
 width="500.000000pt" height="500.000000pt" viewBox="0 0 500.000000 500.000000"
 preserveAspectRatio="xMidYMid meet">

<g transform="translate(0.000000,500.000000) scale(0.100000,-0.100000)"
fill="#000000" stroke="none">
<path d="M1308 3118 c-27 -21 -29 -21 -63 -5 -37 18 -68 12 -77 -15 -3 -8 -14
-5 -35 10 -41 29 -83 28 -117 -3 -23 -21 -32 -23 -75 -18 -43 5 -50 3 -65 -18
-9 -13 -16 -31 -16 -39 0 -9 -12 -27 -26 -41 -22 -20 -25 -30 -21 -66 4 -42 4
-43 -24 -43 -59 0 -44 -62 24 -97 55 -28 107 -84 107 -114 0 -26 21 -79 157
-389 151 -345 343 -639 420 -641 16 0 37 -2 49 -3 40 -5 190 14 239 30 151 50
266 164 252 252 -4 18 -33 73 -65 120 -129 189 -281 463 -342 615 -12 32 -36
72 -53 88 -28 29 -30 34 -34 142 -6 124 -18 157 -58 157 -17 0 -29 9 -40 29
-19 37 -62 71 -89 70 -11 0 -33 -10 -48 -21z m-199 -14 l24 -17 -24 -18 c-13
-10 -33 -19 -45 -19 -11 0 -30 -11 -42 -25 -12 -14 -31 -25 -42 -25 -11 0 -28
-8 -38 -18 -10 -10 -32 -24 -50 -31 -18 -8 -37 -22 -43 -33 -5 -10 -14 -16
-20 -13 -18 12 -8 47 21 75 18 17 30 38 30 54 0 33 22 44 78 38 41 -3 50 0 71
22 28 30 47 32 80 10z m305 -15 c46 -54 37 -65 -49 -65 -73 1 -75 2 -75 25 0
34 37 71 71 71 18 0 36 -10 53 -31z m-174 6 c7 -8 19 -15 26 -15 26 0 16 -60
-15 -96 -33 -37 -35 -36 -69 33 l-21 41 20 26 c23 29 41 33 59 11z m-70 -81
c25 -56 25 -57 1 -44 -11 5 -29 10 -40 10 -24 0 -36 32 -21 60 17 33 39 23 60
-26z m-82 -4 c-1 -24 -5 -30 -23 -30 -12 0 -38 -11 -57 -24 -30 -20 -37 -21
-53 -10 -15 11 -16 16 -5 29 7 8 22 15 34 15 13 0 33 11 46 25 33 35 59 33 58
-5z m421 3 c5 -10 12 -72 16 -138 6 -106 5 -118 -8 -106 -18 15 -66 142 -71
190 -3 23 2 39 15 52 24 24 36 24 48 2z m-99 -13 c12 -8 10 -10 -10 -9 -14 1
-36 5 -50 9 -23 7 -22 8 10 9 19 0 42 -4 50 -9z m-16 -40 c31 -11 33 -31 6
-48 -13 -8 -20 -23 -20 -42 0 -28 -2 -30 -21 -19 -12 6 -34 22 -50 36 -23 21
-26 29 -18 45 18 33 61 44 103 28z m-335 -13 c-2 -2 -22 -15 -44 -31 l-40 -27
35 30 c19 17 39 31 44 31 5 0 7 -1 5 -3z m176 -26 c47 -27 86 -61 71 -61 -4 0
-22 11 -39 24 -18 14 -53 34 -77 45 -27 12 -37 21 -25 21 11 0 43 -13 70 -29z
m-292 7 c15 -11 15 -18 5 -53 -6 -22 -13 -42 -14 -44 -2 -2 -16 6 -32 18 -17
12 -35 21 -41 21 -18 0 -12 19 14 45 27 28 43 31 68 13z m282 -39 c50 -32 48
-51 -3 -30 -15 6 -42 12 -59 14 -18 2 -42 12 -53 22 -21 19 -29 8 -8 -13 8 -8
6 -16 -10 -29 -12 -10 -29 -40 -39 -68 -27 -72 -47 -67 -51 13 -3 57 -1 65 25
90 23 23 38 28 88 30 53 3 66 -1 110 -29z m242 -44 c36 -93 36 -91 7 -104 -15
-6 -28 -10 -29 -9 -1 2 -12 36 -25 75 -18 60 -20 76 -10 88 20 24 33 13 57
-50z m-604 11 c44 -18 68 -48 77 -96 8 -46 -5 -53 -36 -19 -10 12 -40 32 -65
44 -53 27 -73 49 -65 70 7 19 46 19 89 1z m332 -10 c25 -9 60 -13 95 -9 39 3
61 1 74 -10 18 -14 18 -15 -3 -44 -19 -25 -21 -36 -14 -64 5 -19 7 -46 5 -62
l-3 -27 -43 25 c-52 31 -140 61 -201 70 -42 7 -44 9 -39 34 11 45 34 82 57 91
29 12 26 12 72 -4z m228 -107 c2 -38 -1 -44 -18 -44 -11 0 -26 12 -34 27 -15
25 -14 29 9 53 29 31 40 22 43 -36z m141 -10 c14 -11 26 -24 26 -28 0 -4 -18
-16 -41 -26 -22 -10 -60 -40 -83 -66 l-43 -48 -23 24 c-26 28 -23 35 40 101
38 40 68 61 91 63 4 1 18 -8 33 -20z m-369 -44 c81 -27 189 -101 254 -172 34
-36 61 -70 61 -74 0 -11 11 -11 28 -1 10 7 4 23 -23 67 -41 68 -43 94 -12 122
48 45 107 62 107 32 0 -35 171 -358 274 -519 l55 -85 -49 -5 c-28 -3 -62 -15
-80 -28 -41 -31 -71 -25 -90 16 -9 18 -18 30 -22 27 -3 -3 -3 5 -1 17 5 25
-18 134 -38 183 -7 17 -13 35 -14 41 -2 6 -10 24 -18 40 -15 27 -16 27 -17 7
0 -21 -18 -34 -21 -15 -1 4 -3 20 -5 35 -3 33 -21 57 -40 57 -8 0 -14 -2 -14
-5 0 -6 32 -67 50 -95 16 -26 59 -144 69 -192 21 -92 23 -143 7 -211 -20 -87
-52 -136 -121 -187 -31 -23 -59 -48 -62 -56 -5 -12 -10 -11 -29 7 -13 12 -24
29 -24 37 0 8 29 44 65 81 83 86 99 127 98 251 0 78 -5 108 -28 170 -30 83
-55 126 -55 98 0 -9 4 -19 9 -23 5 -3 19 -35 31 -71 31 -92 25 -235 -13 -313
-15 -29 -25 -57 -22 -60 2 -4 -6 -8 -18 -9 -95 -9 -124 6 -181 92 -20 30 -42
61 -49 68 -8 7 -13 16 -13 20 1 9 -96 172 -107 179 -5 3 -8 9 -8 13 1 3 -21
52 -47 109 -52 108 -89 213 -94 262 -2 19 -8 29 -16 27 -8 -1 -11 2 -7 8 4 6
14 9 22 6 8 -3 11 -1 8 4 -9 15 83 12 136 -4 98 -30 224 -115 287 -194 17 -20
33 -34 36 -31 4 3 -31 42 -76 85 -132 126 -263 182 -390 168 -62 -7 -72 1 -41
32 14 14 31 16 107 11 50 -2 114 -12 141 -22z m199 -20 c-4 -8 -10 -15 -15
-15 -5 0 -9 7 -9 15 0 8 7 15 15 15 9 0 12 -6 9 -15z m584 -665 l23 -35 -44
-6 c-54 -8 -76 -19 -147 -75 -57 -45 -132 -83 -162 -84 -22 0 -22 -2 2 53 14
30 28 47 44 51 13 3 48 28 78 54 101 93 163 106 206 42z m-273 -46 c9 -15 12
-23 6 -20 -11 7 -35 46 -28 46 3 0 12 -12 22 -26z m315 -73 c0 -4 -14 -28 -30
-53 -67 -101 -213 -165 -391 -170 -62 -2 -103 1 -105 7 -5 16 119 96 157 101
92 14 145 36 132 57 -3 6 -1 7 6 3 7 -4 27 6 48 24 40 36 91 60 124 60 16 0
19 4 15 17 -4 9 4 5 19 -11 14 -15 25 -31 25 -35z m-640 -26 c0 -2 -10 -9 -22
-15 -22 -11 -22 -10 -4 4 21 17 26 19 26 11z"/>
<path d="M1470 2383 c0 -4 5 -15 10 -23 8 -13 10 -13 10 2 0 9 -4 20 -10 23
-5 3 -10 3 -10 -2z"/>
<path d="M2204 2917 c-2 -7 -3 -98 -2 -202 l3 -190 138 -3 138 -3 -3 33 -3 33
-92 3 -93 3 0 157 c0 110 -4 162 -12 170 -16 16 -67 15 -74 -1z"/>
<path d="M3112 2918 c-7 -7 -12 -24 -12 -38 0 -34 17 -50 52 -50 27 0 48 23
48 54 0 37 -61 61 -88 34z"/>
<path d="M1583 2854 c4 -52 10 -71 30 -92 14 -15 50 -83 81 -152 91 -201 286
-535 300 -512 17 29 36 137 36 213 0 178 -60 322 -189 449 -57 57 -97 86 -161
118 -47 23 -90 42 -94 42 -5 0 -6 -30 -3 -66z"/>
<path d="M2603 2798 c-85 -22 -111 -161 -43 -230 24 -23 37 -28 80 -28 44 0
56 4 82 30 16 16 28 38 26 47 -4 24 -36 28 -58 8 -11 -10 -31 -15 -51 -13 -51
5 -46 25 8 32 26 3 59 8 73 9 14 2 26 11 28 20 5 24 -16 93 -33 107 -22 19
-77 27 -112 18z m62 -89 c-8 -12 -52 -12 -60 0 -3 6 2 14 12 20 20 11 57 -4
48 -20z"/>
<path d="M2822 2801 c-8 -4 -12 -19 -10 -32 2 -19 10 -25 38 -27 30 -2 38 2
58 33 l22 35 -47 0 c-27 0 -54 -4 -61 -9z"/>
<path d="M2872 2699 c-46 -70 -72 -119 -70 -132 3 -21 9 -22 111 -25 l108 -3
-3 28 c-3 26 -7 28 -50 31 -27 2 -48 6 -48 9 0 4 23 39 50 79 28 40 50 79 50
86 0 22 -21 38 -49 38 -22 0 -38 -19 -99 -111z"/>
<path d="M3299 2794 c-19 -24 1 -49 40 -49 25 0 36 7 52 33 l21 32 -50 0 c-33
0 -54 -5 -63 -16z"/>
<path d="M3354 2696 c-44 -66 -74 -122 -72 -133 3 -16 15 -18 111 -21 l107 -3
0 31 c0 29 -1 30 -50 30 -27 0 -50 3 -50 6 0 4 20 34 43 68 65 91 70 102 51
120 -8 9 -26 16 -40 16 -19 0 -38 -21 -100 -114z"/>
<path d="M3605 2788 c-53 -41 -68 -115 -39 -187 49 -122 219 -91 239 43 9 58
-21 128 -64 150 -43 23 -103 20 -136 -6z m110 -58 c35 -39 13 -140 -31 -140
-21 0 -44 42 -44 80 0 38 23 80 44 80 7 0 21 -9 31 -20z"/>
<path d="M3113 2793 c-10 -3 -13 -40 -13 -133 0 -118 2 -130 19 -140 27 -14
47 -13 65 6 13 12 16 39 16 133 0 78 -4 121 -12 129 -12 12 -52 15 -75 5z"/>
<path d="M825 2578 c-48 -105 -58 -166 -52 -299 6 -137 28 -207 97 -312 105
-159 262 -258 450 -283 l52 -7 -49 69 c-77 108 -147 229 -217 375 -71 147
-202 445 -219 497 -6 17 -14 32 -19 32 -5 0 -24 -33 -43 -72z"/>
<path d="M2951 2321 c-13 -24 8 -55 34 -50 28 6 42 34 26 53 -18 22 -48 20
-60 -3z"/>
<path d="M3350 2210 c0 -123 1 -130 20 -130 19 0 20 7 20 130 0 123 -1 130
-20 130 -19 0 -20 -7 -20 -130z"/>
<path d="M3156 2308 c-9 -12 -16 -37 -16 -56 0 -29 -3 -33 -22 -30 -17 2 -24
-3 -26 -19 -3 -19 1 -23 22 -23 22 0 25 -5 31 -47 3 -27 7 -55 8 -63 1 -8 9
-15 17 -15 11 0 16 15 18 63 l3 62 34 0 c28 0 35 4 35 20 0 16 -7 20 -34 20
-40 0 -50 11 -41 47 5 20 10 24 27 19 29 -7 52 12 37 30 -19 23 -75 17 -93 -8z"/>
<path d="M2188 2313 c-10 -2 -18 -13 -18 -24 0 -16 7 -19 45 -19 l45 0 0 -94
c0 -73 3 -95 15 -99 22 -9 26 5 32 103 l6 90 43 0 c36 0 44 3 44 19 0 13 -10
20 -31 25 -35 7 -154 6 -181 -1z"/>
<path d="M3499 2251 c-23 -24 -29 -38 -29 -74 0 -65 28 -97 85 -97 50 0 95 17
95 36 0 21 -20 27 -50 14 -34 -14 -75 -7 -83 14 -4 11 2 13 31 9 48 -6 92 25
92 67 0 62 -90 82 -141 31z m94 -25 c7 -18 -12 -36 -39 -36 -30 0 -38 15 -18
34 19 20 50 21 57 2z"/>
<path d="M2727 2263 c-2 -5 -2 -50 1 -100 4 -83 7 -93 23 -93 16 0 19 8 19 45
0 54 28 79 77 69 22 -4 32 -2 36 9 10 26 -19 40 -68 35 -42 -5 -45 -4 -45 18
0 17 -6 24 -19 24 -11 0 -22 -3 -24 -7z"/>
<path d="M3725 2257 c-3 -7 -5 -52 -3 -98 3 -78 4 -84 26 -87 20 -3 22 1 22
46 0 43 3 50 26 60 14 7 36 9 49 6 18 -4 27 -1 31 11 10 24 -14 37 -63 32 -37
-4 -42 -2 -45 17 -3 24 -35 34 -43 13z"/>
<path d="M2477 2224 c-42 -42 -44 -109 -3 -136 25 -17 77 -8 103 18 25 25 34
23 46 -10 5 -15 37 2 37 20 0 19 -56 115 -74 126 -26 17 -83 8 -109 -18z m83
-29 c18 -22 -12 -65 -45 -65 -20 0 -25 5 -25 24 0 14 10 32 22 40 28 20 32 20
48 1z"/>
<path d="M2960 2149 c0 -78 1 -80 23 -77 20 3 22 9 25 81 3 77 3 77 -23 77
-25 0 -25 -1 -25 -81z"/>
</g>
</svg>
